<svg width="191" height="29" viewBox="0 0 191 29" fill="none" xmlns="http://www.w3.org/2000/svg">
<path fill-rule="evenodd" clip-rule="evenodd" d="M173.259 0.799927H190.379V5.53593H178.571V11.3839H189.119V16.1199H178.571V23.2639H190.379V27.9999H173.259V0.799927ZM177.571 24.2639V15.1199H188.119V12.3839H177.571V4.53593H189.379V1.79993H174.259V26.9999H189.379V24.2639H177.571Z" fill="white"/>
<path fill-rule="evenodd" clip-rule="evenodd" d="M151.261 0.799927H160.001C162.845 0.799927 165.159 1.38137 166.76 2.72261C168.397 4.06996 169.137 6.07455 169.137 8.53193C169.137 10.3854 168.671 12.0252 167.691 13.3972L167.685 13.4051C167.031 14.3018 166.21 15.0008 165.239 15.5048C165.286 15.5576 165.331 15.6111 165.375 15.6653C165.766 16.1193 166.08 16.6573 166.327 17.2613L166.328 17.2655L170.663 27.9999H164.933L161.517 19.2268L161.516 19.2243C161.139 18.2477 160.749 17.7791 160.443 17.5879C160.109 17.3788 159.439 17.1999 158.273 17.1999H156.573V27.9999H151.261V0.799927ZM155.573 16.1999H158.273C159.497 16.1999 160.397 16.3799 160.973 16.7399C161.549 17.0999 162.041 17.8079 162.449 18.8639L165.617 26.9999H169.181L165.401 17.6399C165.185 17.1119 164.921 16.6679 164.609 16.3079C164.504 16.1786 164.388 16.0521 164.261 15.9282C164.018 15.6901 163.734 15.4621 163.409 15.2441C163.401 15.2387 163.393 15.2333 163.385 15.2279V15.1559C163.405 15.1505 163.425 15.1451 163.444 15.1395C163.801 15.0387 164.139 14.9163 164.458 14.7722C165.445 14.3269 166.251 13.6748 166.877 12.8159C167.717 11.6399 168.137 10.2119 168.137 8.53193C168.137 6.27593 167.465 4.59593 166.121 3.49193C164.777 2.36393 162.737 1.79993 160.001 1.79993H152.261V26.9999H155.573V16.1999ZM163.004 11.5771C163.591 11.0348 163.969 10.1563 163.969 8.74793C163.969 7.54361 163.611 6.81434 163.046 6.35868C162.439 5.86957 161.389 5.53593 159.713 5.53593H156.573V12.4999H159.821C161.402 12.4999 162.401 12.1335 163.004 11.5771ZM155.573 13.4999V4.53593H159.713C161.489 4.53593 162.809 4.88393 163.673 5.57993C164.537 6.27593 164.969 7.33193 164.969 8.74793C164.969 11.9159 163.253 13.4999 159.821 13.4999H155.573Z" fill="white"/>
<path fill-rule="evenodd" clip-rule="evenodd" d="M115.913 0.799927H121.225V11.8879H131.249V0.799927H136.561V27.9999H131.249V16.6239H121.225V27.9999H115.913V0.799927ZM120.225 15.6239H132.249V26.9999H135.561V1.79993H132.249V12.8879H120.225V1.79993H116.913V26.9999H120.225V15.6239Z" fill="white"/>
<path fill-rule="evenodd" clip-rule="evenodd" d="M93.2039 23.6799V19.5951L104.473 0.799927H110.072V18.9439H112.916V23.6799H110.072V27.9999H104.76V23.6799H93.2039ZM105.76 22.6799V26.9999H109.072V22.6799H111.916V19.9439H109.072V1.79993H105.04L94.2039 19.8719V22.6799H105.76ZM105.76 5.65193L97.2279 19.9439H105.76V5.65193ZM104.76 9.27792L98.9895 18.9439H104.76V9.27792Z" fill="white"/>
<path fill-rule="evenodd" clip-rule="evenodd" d="M90.2128 0.799927V27.9999H85.3763L74.7328 10.6061V27.9999H69.4208V0.799927H74.4747L84.9008 17.9262V0.799927H90.2128ZM85.9008 21.4919L73.9128 1.79993H70.4208V26.9999H73.7328V7.05593L85.9368 26.9999H89.2128V1.79993H85.9008V21.4919Z" fill="white"/>
<path fill-rule="evenodd" clip-rule="evenodd" d="M48.5135 0.799927H65.6335V5.53593H53.8255V11.3839H64.3735V16.1199H53.8255V23.2639H65.6335V27.9999H48.5135V0.799927ZM52.8255 24.2639V15.1199H63.3735V12.3839H52.8255V4.53593H64.6335V1.79993H49.5135V26.9999H64.6335V24.2639H52.8255Z" fill="white"/>
<path fill-rule="evenodd" clip-rule="evenodd" d="M26.7968 0.799927H35.2128C38.1335 0.799927 40.5162 1.47814 42.1846 3.00324C43.8903 4.54003 44.6728 6.7409 44.6728 9.43193C44.6728 12.2634 43.8692 14.5855 42.1301 16.2403L42.124 16.2462C40.3918 17.8667 37.9763 18.6039 35.0328 18.6039H32.1088V27.9999H26.7968V0.799927ZM31.1088 17.6039H35.0328C37.8168 17.6039 39.9528 16.9079 41.4408 15.5159C42.9288 14.0999 43.6728 12.0719 43.6728 9.43193C43.6728 6.93593 42.9528 5.03993 41.5128 3.74393C40.0968 2.44793 37.9968 1.79993 35.2128 1.79993H27.7968V26.9999H31.1088V17.6039ZM38.4563 12.8023C39.1102 12.1307 39.5048 11.1174 39.5048 9.61193C39.5048 8.13911 39.1039 7.17824 38.449 6.55788C37.7831 5.927 36.7463 5.53593 35.1768 5.53593H32.1088V13.8679H35.4648C36.8794 13.8679 37.8211 13.4727 38.4468 12.8122L38.4563 12.8023ZM31.1088 14.8679V4.53593H35.1768C36.9048 4.53593 38.2248 4.96793 39.1368 5.83193C40.0488 6.69593 40.5048 7.95593 40.5048 9.61193C40.5048 11.2919 40.0608 12.5879 39.1728 13.4999C38.3088 14.4119 37.0728 14.8679 35.4648 14.8679H31.1088Z" fill="white"/>
<path fill-rule="evenodd" clip-rule="evenodd" d="M5.67904 26.6479L5.67907 26.6478C3.89403 25.4755 2.53954 23.8181 1.60619 21.7181L1.60435 21.7139C0.673554 19.5938 0.223999 17.1475 0.223999 14.3999C0.223999 11.6537 0.673116 9.21815 1.60527 7.11987C2.5374 4.99761 3.89231 3.33604 5.68344 2.18521C7.47485 1.01006 9.56604 0.439941 11.916 0.439941C14.2643 0.439941 16.3455 1.00933 18.1154 2.18705C19.9052 3.33783 21.2591 4.99879 22.1908 7.11996C23.1229 9.21822 23.572 11.6537 23.572 14.3999C23.572 17.1475 23.1224 19.5938 22.1916 21.7139L22.1898 21.7181C21.2565 23.8181 19.902 25.4755 18.1169 26.6478L18.1139 26.6498C16.3435 27.8033 14.263 28.3599 11.916 28.3599C9.56861 28.3599 7.47916 27.8032 5.68788 26.6535L5.67904 26.6479ZM21.276 7.52394C20.412 5.55594 19.176 4.05594 17.568 3.02394C15.984 1.96794 14.1 1.43994 11.916 1.43994C9.732 1.43994 7.836 1.96794 6.228 3.02394C4.62 4.05594 3.384 5.55594 2.52 7.52394C1.656 9.46794 1.224 11.7599 1.224 14.3999C1.224 17.0399 1.656 19.3439 2.52 21.3119C3.384 23.2559 4.62 24.7559 6.228 25.8119C7.836 26.8439 9.732 27.3599 11.916 27.3599C14.1 27.3599 15.984 26.8439 17.568 25.8119C19.176 24.7559 20.412 23.2559 21.276 21.3119C22.14 19.3439 22.572 17.0399 22.572 14.3999C22.572 11.7599 22.14 9.46794 21.276 7.52394ZM15.2067 22.6339L15.2067 22.6339C16.1566 21.9266 16.9036 20.9076 17.4237 19.5208L17.4266 19.513L17.4267 19.513C17.9731 18.0921 18.26 16.3946 18.26 14.3999C18.26 12.4047 17.973 10.7215 17.4285 9.32779L17.4251 9.31908L17.4219 9.31032C16.9005 7.8983 16.1529 6.87057 15.2067 6.16599L15.1984 6.15981L15.1985 6.15977C14.2816 5.46211 13.2022 5.10394 11.916 5.10394C10.6019 5.10394 9.51155 5.46432 8.59752 6.15977C7.66895 6.86629 6.91645 7.90044 6.36934 9.32292L6.36747 9.3278C5.82303 10.7215 5.536 12.4047 5.536 14.3999C5.536 16.3935 5.82254 18.0902 6.36841 19.5105C6.91419 20.9067 7.6659 21.9313 8.59752 22.6401C9.51155 23.3356 10.6019 23.6959 11.916 23.6959C13.2022 23.6959 14.2816 23.3378 15.1985 22.6401L15.2067 22.6339ZM5.436 19.8719C4.836 18.3119 4.536 16.4879 4.536 14.3999C4.536 12.3119 4.836 10.4999 5.436 8.96394C6.036 7.40394 6.888 6.20394 7.992 5.36394C9.096 4.52394 10.404 4.10394 11.916 4.10394C13.404 4.10394 14.7 4.52394 15.804 5.36394C16.932 6.20394 17.784 7.40394 18.36 8.96394C18.96 10.4999 19.26 12.3119 19.26 14.3999C19.26 16.4879 18.96 18.3119 18.36 19.8719C17.784 21.4079 16.932 22.5959 15.804 23.4359C14.7 24.2759 13.404 24.6959 11.916 24.6959C10.404 24.6959 9.096 24.2759 7.992 23.4359C6.888 22.5959 6.036 21.4079 5.436 19.8719Z" fill="white"/>
</svg>
