<svg xmlns="http://www.w3.org/2000/svg" xml:space="preserve" width="2000" height="2000" data-id="lg_DmviJJErLETe6CDZP3" data-version="1" viewBox="0 0 2000 123"><g data-padding="20"><g transform="translate(10 2.177)scale(.9646)"><path fill="#acacac" stroke="#acacac" stroke-width="5.3" d="M925.26.198v116.92"/><path fill="#acacac" stroke="#acacac" stroke-width="1.72" d="M872.641 88.85c-3.192-4.348-7.219-7.821-11.6-10.917-2.33-1.64-4.848-2.998-7.09-4.776a237 237 0 0 0-7.273-5.532c-6.67-4.9-13.555-9.494-20.313-14.272-2.82-1.996-4.089-4.921-4.278-8.313-.08-1.47.616-2.03 2.141-1.89 1.376.13 2.74.343 4.058.763 2.363.755 4.773 1.25 7.267 1.266 1.221.007 2.386-.284 3.39-.94a20.8 20.8 0 0 0 5.884-5.75c.036-.05-.03-.168-.072-.346-1.643 0-3.308.025-4.97-.014-.587-.014-.967.203-1.358.609-1.08 1.126-2.434 1.81-3.923 2.208-3.022.805-5.84-.024-8.924-1.133 2.706-.267 5.355.543 7.65-1.73-1.963 0-3.61-.061-5.255.017-1.633.079-2.97 1.34-4.7 1.2 1.886 1.242 3.695 2.465 5.34 3.973-.904-.11-1.74-.488-2.6-.536-1.296-.076-2.06-.852-2.832-1.703-.19-.215-.355-.447-.542-.662-1.634-1.86-3.079-3.89-5.005-5.48-.35-.287-.642-.76-1.302-.435 1.74 2.162 2.944 4.628 4.34 6.983l-.185.244c-1.69-.115-3.025-.774-4.095-1.96a8 8 0 0 1-.697-.904c-.736-1.107-1.343-2.322-2.153-3.333-1.13-1.416-2.17-2.89-3.24-4.341-.365-.494-.83-.757-1.377-.955-1.692-.617-3.395-1.214-5.072-1.87-2.317-.908-4.678-.645-7.042-.33-1.63.217-2.463 1.32-2.284 3.16.138 1.424.25 2.87.026 4.28-.232 1.47.016 2.865.437 4.22.772 2.489 1.651 4.945 2.513 7.408.975 2.786 2.028 5.57 3.705 7.996 3.476 5.03 7.447 9.674 12.11 13.643 5.47 4.665 11.098 9.144 16.614 13.759 3.213 2.69 6.405 5.42 9.085 8.67 1.195 1.447 2.256 2.957 2.022 5.012.455.035.83.085 1.206.088q4.575.069 9.15.119c1.371.015 1.447-.098 1.268-1.47-.075-.575-.29-1.097-.538-1.613-.475-.994-1.12-1.873-1.808-2.731-2.442-3.037-5.523-5.385-8.536-7.786-6.586-5.253-13.267-10.386-19.873-15.613-2.5-1.974-5.107-3.837-7.32-6.152-2.305-2.412-4.453-4.96-6.574-7.537-1.662-2.018-2.8-4.223-3.559-6.736-.767-2.542-.43-4.892.494-7.232.62-1.57 1.795-2.066 3.43-1.576a108 108 0 0 1 4.064 1.31c1.372.477 2.724 1.014 4.086 1.523-.409.19-.777.187-1.147.19-2.415.015-2.895.426-3.638 2.722-.37 1.147-.113 2.155.353 3.158.382.822.814 1.617 1.266 2.396 1.952 3.36 4.278 6.465 7.332 8.863 9.921 7.786 20.33 14.923 30.351 22.575 2.878 2.198 5.766 4.379 8.263 7.02 2.358 2.495 4.624 5.06 4.782 8.952l10.378.002c1.327 0 1.394-.08 1.177-1.376-.4-2.407-1.598-4.46-3.007-6.385m-89.352-1.534c-1.493-2.916-3.1-5.773-4.536-8.714-2.67-5.478-4.914-11.047-5.483-17.255-.545-5.948.107-11.668 1.742-17.346.456-1.58 1.046-3.115 1.66-4.632-.738-.392-1.17.046-1.646.342-2.22 1.388-4.25 3.064-6.47 4.434a17.1 17.1 0 0 0-5.527 5.429c-.86 1.34-2.057 2.444-2.73 3.914.565.033.914-.321 1.258-.657l.136-.13.012-.01.167-.143c2.62-2.063 4.977-4.426 7.497-6.6.365-.315.673-.765 1.208-.807.287.537-.123.693-.336.888-3.187 2.876-5.972 6.13-8.827 9.322-1.966 2.2-3.942 4.415-6.295 6.208a21 21 0 0 0-4.424 4.575c-2.16 3.025-4.424 5.98-6.672 9.002.2.036.318.098.373.06a16 16 0 0 0 .93-.657c4.963-3.698 9.132-8.182 12.911-13.047 1.78-2.288 3.538-4.59 5.306-6.884l.258.413q-2.026 3.26-4.055 6.52c-3.86 6.19-8.117 12.073-13.174 17.36a86 86 0 0 1-2.64 2.606v7.984c.506-.792 1-1.592 1.615-2.303 2.688-3.092 5.182-6.331 7.33-9.824 3.955-6.43 7.431-13.124 10.807-19.868 1.25-2.5 2.613-4.935 4.245-7.21l.29.204c-.479.984-1.007 1.947-1.423 2.954-2.35 5.7-4.8 11.359-6.792 17.203a91 91 0 0 1-3.753 9.38 9.1 9.1 0 0 0-.76 2.58c-.11.753-.209 1.506-.33 2.258-.618 3.849-2.003 7.323-4.939 10.032-.048.043-.015.178-.027.4 3.53 0 7.048-.018 10.57.017.611.003.96-.29 1.306-.704 1.431-1.716 2.06-3.724 2.18-5.918.134-2.436-.112-4.856-.41-7.267-.384-3.117-.746-6.172.072-9.328.974-3.765 1.192-7.702 2.358-11.438 1.254-4.028 2.303-8.132 4.03-12.002.762-1.711 1.61-3.385 2.745-4.94.39.638-.036 1.096-.216 1.545-1.624 3.978-2.597 8.137-3.35 12.348-.756 4.243-.548 8.55-.65 12.832-.01.283.042.573.111.847.505 2.03 1 4.059 1.543 6.078.925 3.437 2.258 6.75 3.092 10.214.635 2.63 1.048 5.264-.84 7.63-.027.037.05.154.11.325 3.305 0 6.64-.004 9.973 0 1.45 0 1.695-.193 2.05-1.57a4.7 4.7 0 0 0 .104-1.836c-.232-1.722-.903-3.294-1.684-4.814"/><path fill="#acacac" stroke="#acacac" stroke-width="1.72" d="m760.264 53.512.006-.003q.007-.01.01-.022l-.04-.002Zm-.028.166a.1.1 0 0 0 .047-.026q.008-.014.01-.028l.007-.013q.001-.02-.007-.042v-.003a.2.2 0 0 0-.03-.054l-.19.102c.055.024.118.08.163.064m138.472 42.274c-.23-1.414-.53-2.831-1.15-4.102-1.23-2.506-1.229-5.133-1.04-7.802a83 83 0 0 0 .181-7.424c-.019-.817-.277-1.427-.782-2.052-2.066-2.55-4.06-5.158-6.127-7.71-.944-1.162-1.77-2.433-2.88-3.49-.292.374-.168.715-.197 1.026-.195 2.044-1.068 2.778-3.094 2.61-1.206-.102-2.307-.553-3.377-1.056-2.442-1.16-4.84-2.414-7.298-3.532-5.053-2.3-10.297-4.12-15.549-5.903-2.224-.755-3.876-1.948-4.539-4.28a1.8 1.8 0 0 0-.853-1.09c-.345-.202-.77-.347-.875-.588l5.806-12.298c-1.88 0-3.498.047-5.11-.02-.772-.033-1.183.218-1.555.896-1.534 2.78-3.132 5.524-4.704 8.282-.738 1.296-.734 1.3-2.146 1.032-1.26-.241-2.525-.453-3.776-.744-.803-.19-1.6-.185-2.41-.202-.768-.02-1.356.294-1.883.939 1.036.91 2.176 1.584 3.29 2.27 2.902 1.784 5.735 3.667 8.934 4.964 2.444.989 4.96 1.976 6.722 4.14 2.568 3.15 5.776 5.666 8.597 8.566 1.071 1.099 2.311 1.945 3.632 2.728 6.344 3.746 11.903 8.364 15.976 14.592 2.115 3.23 4.078 6.538 4.487 10.499.064.588.476.492.84.497 3.38.058 6.76.084 10.142.179.8.019.845-.277.738-.927m-69.672-3.306c-.676-1.156-1.503-2.2-2.403-3.187-3.345-3.672-7.124-6.882-10.867-10.131-5.04-4.37-10.096-8.717-14.345-13.91-2.657-3.25-5.16-6.572-6.812-10.48-1.722-4.062-3.222-8.214-4.878-12.303-.269-.662-.37-1.367-.415-2.088a165 165 0 0 0-.423-5.12c-.23-2.5.248-4.914 1.708-7.052.122-.18.358-.344.045-.716-.988.598-1.968 1.249-2.998 1.805-1.858 1.003-2.842 2.585-3.22 4.606a10 10 0 0 0-.114.848c-.22 2.526.085 5.036.167 7.556.074 2.334.68 4.49 1.531 6.625 1.178 2.95 2.26 5.942 3.485 8.877 1.135 2.716 2.42 5.365 4.116 7.797 3.256 4.67 7.084 8.839 11.13 12.82 3.33 3.272 6.78 6.426 9.897 9.915 1.145 1.278 2.251 2.595 3.032 4.13.497.966.946 1.98.3 3.444l10.238.002c1.634 0 1.978-.445 1.49-2.024a7 7 0 0 0-.664-1.414"/><path fill="#acacac" stroke="#acacac" stroke-width="1.72" d="M805.324 89.877c-2.386-3.406-5.329-6.342-8.04-9.47-3.43-3.962-6.81-7.962-9.396-12.551-2.19-3.901-3.86-8.04-5.273-12.27-.707-2.111-1.507-4.206-1.81-6.432-.59-4.291-.098-8.553.301-12.82.064-.7.663-1.233.55-1.962-.285-.02-.424.104-.574.22-1.862 1.507-2.89 3.5-3.324 5.809-.308 1.636-.518 3.29-.799 4.93-.497 2.884-.67 5.794-.227 8.679a55.7 55.7 0 0 0 5.124 16.236c2.51 5.11 5.81 9.696 9.103 14.297 1.463 2.049 3.008 4.047 4.102 6.333.715 1.49 1.13 3.02.198 4.933 3.7 0 7.127.003 10.553-.002 1.155-.001 1.376-.237 1.414-1.402.023-.682-.144-1.326-.407-1.943a14.8 14.8 0 0 0-1.495-2.585m53.56-37.015c1.33.68 2.595.375 3.79-.318 1.31-.76 2.662-1.505 3.113-3.147a625 625 0 0 1 2.453-8.762c.153-.525.063-.88-.24-1.304-.508-.71-1.07-1.128-2.017-1.001a8.6 8.6 0 0 1-2.136-.002c-.846-.094-1.24.202-1.538 1.027-1.135 3.165-2.375 6.294-3.546 9.443-.439 1.176-.986 2.262-2.09 3.15.745.52 1.538.572 2.212.914m6.525 1.495c-.583-.022-1.157-.083-1.966.144 3.057.957 5.793 2.114 8.588 3.114 1.25.447 2.537.793 3.901.736 1.87-.078 2.893-.915 3.282-2.75.07-.326.07-.666.158-.986.136-.506.021-.912-.306-1.32-1.88-2.33-3.736-4.678-5.71-7.158-.287.482-.306.86-.373 1.23-.252 1.403-.472 2.814-.974 4.155-.674 1.793-2 2.728-3.887 2.84-.9.057-1.81.035-2.713-.005M770.222 39.95c1.455-.603 2.53-1.346 3.68-2.005-1.913-.754-2.715.492-3.68 2.005"/><rect width="358.878" height="120.91" x="443.63" y="-398.687" fill="none" rx="0" ry="0" transform="translate(506.22 400.58)"/><path fill="#fff" d="M971.25 97.038q-8.67 0-13.27-4.92-4.6-4.93-4.6-13.91v-39.38q0-8.99 4.6-13.91t13.27-4.92 13.27 4.92 4.6 13.91v39.38q0 8.98-4.6 13.91-4.6 4.92-13.27 4.92m0-10.7q6.1 0 6.1-7.39v-40.87q0-7.38-6.1-7.38t-6.1 7.38v40.87q0 7.39 6.1 7.39m25.79 9.63v-74.9h17.33q8.77 0 13.16 4.71 4.39 4.7 4.39 13.8v7.38q0 9.1-4.39 13.8-4.39 4.71-13.16 4.71h-5.56v30.5Zm11.77-41.2h5.56q2.89 0 4.33-1.6 1.45-1.61 1.45-5.46v-8.88q0-3.85-1.45-5.46-1.44-1.6-4.33-1.6h-5.56Zm29.53 41.2v-74.9h32.1v10.7h-20.33v19.79h16.16v10.7h-16.16v23.01h20.33v10.7Zm38.85 0v-74.9h14.77l11.44 44.83h.22v-44.83h10.48v74.9h-12.09l-14.12-54.68h-.21v54.68Zm65.37 0v-13.59h-22.47v-10.7l21.4-50.61h12.84v50.61h5.56v10.7h-5.56v13.59Zm-11.77-24.29h11.77v-29.21h-.22Zm34.88 24.29v-74.9h11.77v30.49h12.63v-30.49h11.76v74.9h-11.76v-33.71h-12.63v33.71Zm44.95 0v-74.9h11.77v74.9Zm20.53 0v-74.9h17.44q9.1 0 13.27 4.22 4.17 4.23 4.17 13v4.61q0 11.66-7.7 14.76v.22q4.28 1.28 6.05 5.24 1.76 3.96 1.76 10.59v13.16q0 3.21.22 5.19.21 1.98 1.07 3.91h-11.99q-.64-1.82-.85-3.43-.22-1.6-.22-5.77v-13.7q0-5.14-1.66-7.17t-5.72-2.03h-4.07v32.1Zm11.77-42.8h4.28q3.53 0 5.3-1.82 1.76-1.82 1.76-6.1v-5.78q0-4.06-1.44-5.88t-4.55-1.82h-5.35Zm31.35 42.8v-74.9h32.1v10.7h-20.33v19.79h16.16v10.7h-16.16v23.01h20.33v10.7Z"/></g><path fill="transparent" stroke="transparent" d="M717.5 0h565v123h-565z"/></g></svg>